<svg width="171" height="32" viewBox="0 0 171 32" fill="none" xmlns="http://www.w3.org/2000/svg">
<g clip-path="url(#clip0)">
<path d="M116.756 14L113.974 6.73071H113.929C113.982 7.30657 114.008 7.99087 114.008 8.78361V14H113.127V5.79961H114.563L117.16 12.5641H117.205L119.825 5.79961H121.249V14H120.296V8.7163C120.296 8.11053 120.322 7.4524 120.374 6.74193H120.329L117.525 14H116.756Z" fill="#141334"/>
<path d="M128.67 10.9206C128.67 11.9228 128.418 12.7062 127.913 13.2708C127.408 13.8317 126.711 14.1122 125.821 14.1122C125.271 14.1122 124.783 13.9832 124.357 13.7252C123.93 13.4671 123.601 13.0969 123.369 12.6146C123.138 12.1322 123.022 11.5676 123.022 10.9206C123.022 9.9185 123.272 9.13885 123.773 8.58169C124.274 8.02078 124.97 7.74033 125.86 7.74033C126.72 7.74033 127.402 8.02639 127.907 8.59851C128.416 9.17063 128.67 9.94468 128.67 10.9206ZM123.986 10.9206C123.986 11.7059 124.144 12.3042 124.458 12.7155C124.772 13.1269 125.234 13.3325 125.843 13.3325C126.453 13.3325 126.914 13.1287 127.228 12.7211C127.546 12.3098 127.705 11.7097 127.705 10.9206C127.705 10.1391 127.546 9.54644 127.228 9.14259C126.914 8.735 126.449 8.5312 125.832 8.5312C125.222 8.5312 124.762 8.73126 124.452 9.13137C124.142 9.53148 123.986 10.1279 123.986 10.9206Z" fill="#141334"/>
<path d="M134.515 14V10.0232C134.515 9.52213 134.401 9.1482 134.172 8.9014C133.944 8.6546 133.587 8.5312 133.101 8.5312C132.458 8.5312 131.987 8.70508 131.688 9.05284C131.389 9.4006 131.239 9.97459 131.239 10.7748V14H130.308V7.85251H131.065L131.216 8.69387H131.261C131.452 8.39098 131.719 8.15727 132.063 7.99274C132.407 7.82447 132.791 7.74033 133.213 7.74033C133.954 7.74033 134.511 7.91982 134.885 8.2788C135.259 8.63404 135.446 9.20429 135.446 9.98955V14H134.515Z" fill="#141334"/>
<path d="M138.295 14H137.364V7.85251H138.295V14ZM137.285 6.18663C137.285 5.97349 137.338 5.81831 137.443 5.72108C137.547 5.62012 137.678 5.56964 137.835 5.56964C137.985 5.56964 138.114 5.62012 138.222 5.72108C138.331 5.82205 138.385 5.97723 138.385 6.18663C138.385 6.39604 138.331 6.55309 138.222 6.65779C138.114 6.75875 137.985 6.80923 137.835 6.80923C137.678 6.80923 137.547 6.75875 137.443 6.65779C137.338 6.55309 137.285 6.39604 137.285 6.18663Z" fill="#141334"/>
<path d="M142.255 13.3437C142.42 13.3437 142.579 13.3325 142.732 13.3101C142.885 13.2839 143.007 13.2577 143.096 13.2316V13.9439C142.995 13.9925 142.846 14.0318 142.648 14.0617C142.453 14.0954 142.277 14.1122 142.12 14.1122C140.931 14.1122 140.337 13.4858 140.337 12.2332V8.57608H139.456V8.12735L140.337 7.74033L140.729 6.42782H141.268V7.85251H143.052V8.57608H141.268V12.1939C141.268 12.5641 141.356 12.8483 141.531 13.0465C141.707 13.2447 141.948 13.3437 142.255 13.3437Z" fill="#141334"/>
<path d="M149.637 10.9206C149.637 11.9228 149.384 12.7062 148.879 13.2708C148.374 13.8317 147.677 14.1122 146.787 14.1122C146.237 14.1122 145.749 13.9832 145.323 13.7252C144.897 13.4671 144.568 13.0969 144.336 12.6146C144.104 12.1322 143.988 11.5676 143.988 10.9206C143.988 9.9185 144.239 9.13885 144.74 8.58169C145.241 8.02078 145.936 7.74033 146.826 7.74033C147.686 7.74033 148.369 8.02639 148.874 8.59851C149.382 9.17063 149.637 9.94468 149.637 10.9206ZM144.953 10.9206C144.953 11.7059 145.11 12.3042 145.424 12.7155C145.738 13.1269 146.2 13.3325 146.81 13.3325C147.419 13.3325 147.881 13.1287 148.195 12.7211C148.513 12.3098 148.672 11.7097 148.672 10.9206C148.672 10.1391 148.513 9.54644 148.195 9.14259C147.881 8.735 147.415 8.5312 146.798 8.5312C146.189 8.5312 145.729 8.73126 145.419 9.13137C145.108 9.53148 144.953 10.1279 144.953 10.9206Z" fill="#141334"/>
<path d="M154.079 7.74033C154.352 7.74033 154.597 7.76277 154.814 7.80764L154.685 8.67143C154.43 8.61534 154.206 8.58729 154.012 8.58729C153.514 8.58729 153.088 8.78922 152.733 9.19307C152.381 9.59692 152.205 10.0999 152.205 10.7019V14H151.274V7.85251H152.043L152.149 8.99114H152.194C152.422 8.59103 152.697 8.28254 153.019 8.06566C153.34 7.84877 153.694 7.74033 154.079 7.74033Z" fill="#141334"/>
<path d="M156.895 14H155.964V7.85251H156.895V14ZM155.885 6.18663C155.885 5.97349 155.937 5.81831 156.042 5.72108C156.147 5.62012 156.278 5.56964 156.435 5.56964C156.584 5.56964 156.713 5.62012 156.822 5.72108C156.93 5.82205 156.984 5.97723 156.984 6.18663C156.984 6.39604 156.93 6.55309 156.822 6.65779C156.713 6.75875 156.584 6.80923 156.435 6.80923C156.278 6.80923 156.147 6.75875 156.042 6.65779C155.937 6.55309 155.885 6.39604 155.885 6.18663Z" fill="#141334"/>
<path d="M163.076 14V10.0232C163.076 9.52213 162.962 9.1482 162.734 8.9014C162.505 8.6546 162.148 8.5312 161.662 8.5312C161.019 8.5312 160.548 8.70508 160.249 9.05284C159.95 9.4006 159.8 9.97459 159.8 10.7748V14H158.869V7.85251H159.626L159.778 8.69387H159.823C160.013 8.39098 160.281 8.15727 160.625 7.99274C160.969 7.82447 161.352 7.74033 161.774 7.74033C162.515 7.74033 163.072 7.91982 163.446 8.2788C163.82 8.63404 164.007 9.20429 164.007 9.98955V14H163.076Z" fill="#141334"/>
<path d="M170.956 7.85251V8.44146L169.818 8.57608C169.922 8.70695 170.016 8.87896 170.098 9.09211C170.181 9.30151 170.222 9.53896 170.222 9.80445C170.222 10.4065 170.016 10.887 169.605 11.246C169.193 11.6049 168.629 11.7844 167.911 11.7844C167.727 11.7844 167.555 11.7695 167.395 11.7396C166.998 11.949 166.8 12.2126 166.8 12.5304C166.8 12.6987 166.869 12.824 167.008 12.9062C167.146 12.9848 167.383 13.024 167.72 13.024H168.808C169.474 13.024 169.984 13.1643 170.339 13.4447C170.698 13.7252 170.878 14.1327 170.878 14.6675C170.878 15.348 170.605 15.8659 170.059 16.2212C169.513 16.5802 168.717 16.7596 167.67 16.7596C166.866 16.7596 166.245 16.6101 165.807 16.3109C165.374 16.0118 165.157 15.5892 165.157 15.0433C165.157 14.6693 165.276 14.3459 165.516 14.0729C165.755 13.7999 166.092 13.6148 166.525 13.5176C166.368 13.4466 166.235 13.3363 166.127 13.1867C166.022 13.0371 165.97 12.8632 165.97 12.6651C165.97 12.4407 166.03 12.2444 166.149 12.0761C166.269 11.9078 166.458 11.7452 166.716 11.5881C166.398 11.4572 166.138 11.2348 165.936 10.9206C165.738 10.6065 165.639 10.2476 165.639 9.84372C165.639 9.17063 165.841 8.65273 166.245 8.29002C166.649 7.92356 167.221 7.74033 167.961 7.74033C168.283 7.74033 168.573 7.77773 168.831 7.85251H170.956ZM166.054 15.0321C166.054 15.3649 166.194 15.6173 166.475 15.7893C166.755 15.9613 167.157 16.0473 167.681 16.0473C168.462 16.0473 169.04 15.9295 169.414 15.6939C169.792 15.4621 169.98 15.1461 169.98 14.746C169.98 14.4132 169.878 14.1814 169.672 14.0505C169.466 13.9233 169.079 13.8598 168.511 13.8598H167.395C166.972 13.8598 166.643 13.9607 166.408 14.1627C166.172 14.3646 166.054 14.6544 166.054 15.0321ZM166.559 9.82128C166.559 10.2513 166.68 10.5766 166.924 10.7972C167.167 11.0179 167.505 11.1282 167.939 11.1282C168.847 11.1282 169.302 10.6869 169.302 9.80445C169.302 8.88083 168.842 8.41902 167.922 8.41902C167.484 8.41902 167.148 8.53681 166.912 8.77239C166.677 9.00797 166.559 9.3576 166.559 9.82128Z" fill="#141334"/>
<path d="M116.953 24.3229C116.953 24.895 116.74 25.3363 116.313 25.6466C115.887 25.957 115.289 26.1122 114.518 26.1122C113.703 26.1122 113.068 25.9832 112.611 25.7252V24.8614C112.907 25.0109 113.223 25.1287 113.559 25.2147C113.9 25.3007 114.227 25.3437 114.541 25.3437C115.027 25.3437 115.401 25.2671 115.663 25.1138C115.924 24.9567 116.055 24.7193 116.055 24.4014C116.055 24.1621 115.951 23.9583 115.741 23.79C115.536 23.618 115.132 23.4161 114.53 23.1843C113.958 22.9711 113.55 22.786 113.307 22.629C113.068 22.4682 112.888 22.2868 112.768 22.0849C112.653 21.883 112.595 21.6418 112.595 21.3613C112.595 20.8603 112.798 20.4658 113.206 20.1778C113.614 19.8862 114.173 19.7403 114.883 19.7403C115.545 19.7403 116.192 19.8749 116.824 20.1442L116.493 20.9014C115.876 20.6471 115.317 20.52 114.816 20.52C114.374 20.52 114.042 20.5892 113.817 20.7275C113.593 20.8659 113.481 21.0566 113.481 21.2996C113.481 21.4642 113.522 21.6044 113.604 21.7203C113.69 21.8362 113.827 21.9465 114.014 22.0513C114.201 22.156 114.56 22.3074 115.091 22.5056C115.82 22.7711 116.311 23.0384 116.566 23.3077C116.824 23.5769 116.953 23.9153 116.953 24.3229Z" fill="#141334"/>
<path d="M117.497 19.8525H118.495L119.841 23.3582C120.137 24.1584 120.32 24.7361 120.391 25.0913H120.436C120.485 24.9006 120.586 24.5753 120.739 24.1154C120.896 23.6517 121.404 22.2307 122.264 19.8525H123.263L120.621 26.8526C120.359 27.5444 120.053 28.0342 119.701 28.3221C119.353 28.6138 118.925 28.7596 118.417 28.7596C118.133 28.7596 117.852 28.7279 117.575 28.6643V27.9183C117.781 27.9632 118.011 27.9856 118.265 27.9856C118.905 27.9856 119.361 27.6266 119.634 26.9087L119.976 26.0337L117.497 19.8525Z" fill="#141334"/>
<path d="M128.227 24.3229C128.227 24.895 128.014 25.3363 127.587 25.6466C127.161 25.957 126.563 26.1122 125.793 26.1122C124.977 26.1122 124.342 25.9832 123.886 25.7252V24.8614C124.181 25.0109 124.497 25.1287 124.833 25.2147C125.174 25.3007 125.501 25.3437 125.815 25.3437C126.301 25.3437 126.675 25.2671 126.937 25.1138C127.199 24.9567 127.329 24.7193 127.329 24.4014C127.329 24.1621 127.225 23.9583 127.015 23.79C126.81 23.618 126.406 23.4161 125.804 23.1843C125.232 22.9711 124.824 22.786 124.581 22.629C124.342 22.4682 124.162 22.2868 124.043 22.0849C123.927 21.883 123.869 21.6418 123.869 21.3613C123.869 20.8603 124.072 20.4658 124.48 20.1778C124.888 19.8862 125.447 19.7403 126.157 19.7403C126.819 19.7403 127.466 19.8749 128.098 20.1442L127.767 20.9014C127.15 20.6471 126.591 20.52 126.09 20.52C125.649 20.52 125.316 20.5892 125.091 20.7275C124.867 20.8659 124.755 21.0566 124.755 21.2996C124.755 21.4642 124.796 21.6044 124.878 21.7203C124.964 21.8362 125.101 21.9465 125.288 22.0513C125.475 22.156 125.834 22.3074 126.365 22.5056C127.094 22.7711 127.586 23.0384 127.84 23.3077C128.098 23.5769 128.227 23.9153 128.227 24.3229Z" fill="#141334"/>
<path d="M131.733 25.3437C131.897 25.3437 132.056 25.3325 132.209 25.3101C132.363 25.2839 132.484 25.2577 132.574 25.2316V25.9439C132.473 25.9925 132.323 26.0318 132.125 26.0617C131.931 26.0954 131.755 26.1122 131.598 26.1122C130.409 26.1122 129.814 25.4858 129.814 24.2332V20.5761H128.934V20.1274L129.814 19.7403L130.207 18.4278H130.745V19.8525H132.529V20.5761H130.745V24.1939C130.745 24.5641 130.833 24.8483 131.009 25.0465C131.185 25.2447 131.426 25.3437 131.733 25.3437Z" fill="#141334"/>
<path d="M136.405 26.1122C135.496 26.1122 134.778 25.8355 134.251 25.282C133.727 24.7286 133.466 23.9602 133.466 22.9767C133.466 21.9858 133.709 21.1987 134.195 20.6153C134.685 20.032 135.341 19.7403 136.164 19.7403C136.934 19.7403 137.543 19.9946 137.992 20.5032C138.441 21.008 138.665 21.6754 138.665 22.5056V23.0945H134.43C134.449 23.8162 134.631 24.364 134.975 24.738C135.322 25.1119 135.81 25.2989 136.438 25.2989C137.1 25.2989 137.755 25.1605 138.402 24.8838V25.7139C138.073 25.856 137.76 25.957 137.465 26.0168C137.173 26.0804 136.82 26.1122 136.405 26.1122ZM136.152 20.52C135.659 20.52 135.264 20.6808 134.969 21.0024C134.677 21.3239 134.505 21.7689 134.453 22.3373H137.667C137.667 21.7502 137.536 21.3015 137.274 20.9911C137.012 20.677 136.639 20.52 136.152 20.52Z" fill="#141334"/>
<path d="M148.094 26V22.0008C148.094 21.5109 147.989 21.1445 147.78 20.9014C147.571 20.6546 147.245 20.5312 146.804 20.5312C146.224 20.5312 145.796 20.6976 145.52 21.0304C145.243 21.3632 145.104 21.8755 145.104 22.5673V26H144.173V22.0008C144.173 21.5109 144.069 21.1445 143.859 20.9014C143.65 20.6546 143.323 20.5312 142.878 20.5312C142.294 20.5312 141.866 20.707 141.593 21.0585C141.324 21.4062 141.189 21.9783 141.189 22.7748V26H140.258V19.8525H141.015L141.167 20.6939H141.212C141.388 20.3947 141.634 20.161 141.952 19.9927C142.274 19.8245 142.633 19.7403 143.029 19.7403C143.99 19.7403 144.618 20.0881 144.914 20.7836H144.959C145.142 20.462 145.407 20.2078 145.755 20.0208C146.103 19.8338 146.499 19.7403 146.944 19.7403C147.64 19.7403 148.159 19.9198 148.504 20.2788C148.851 20.634 149.025 21.2043 149.025 21.9896V26H148.094Z" fill="#141334"/>
<path d="M154.915 24.3229C154.915 24.895 154.701 25.3363 154.275 25.6466C153.849 25.957 153.251 26.1122 152.48 26.1122C151.665 26.1122 151.029 25.9832 150.573 25.7252V24.8614C150.869 25.0109 151.185 25.1287 151.521 25.2147C151.861 25.3007 152.189 25.3437 152.503 25.3437C152.989 25.3437 153.363 25.2671 153.625 25.1138C153.886 24.9567 154.017 24.7193 154.017 24.4014C154.017 24.1621 153.912 23.9583 153.703 23.79C153.497 23.618 153.094 23.4161 152.492 23.1843C151.919 22.9711 151.512 22.786 151.269 22.629C151.029 22.4682 150.85 22.2868 150.73 22.0849C150.614 21.883 150.556 21.6418 150.556 21.3613C150.556 20.8603 150.76 20.4658 151.168 20.1778C151.575 19.8862 152.134 19.7403 152.845 19.7403C153.507 19.7403 154.154 19.8749 154.786 20.1442L154.455 20.9014C153.838 20.6471 153.279 20.52 152.778 20.52C152.336 20.52 152.004 20.5892 151.779 20.7275C151.555 20.8659 151.443 21.0566 151.443 21.2996C151.443 21.4642 151.484 21.6044 151.566 21.7203C151.652 21.8362 151.789 21.9465 151.975 22.0513C152.162 22.156 152.521 22.3074 153.052 22.5056C153.782 22.7711 154.273 23.0384 154.528 23.3077C154.786 23.5769 154.915 23.9153 154.915 24.3229Z" fill="#141334"/>
<path fill-rule="evenodd" clip-rule="evenodd" d="M7.50641 32H102.91C104.015 32 104.91 31.1046 104.91 30V2C104.91 0.895431 104.015 0 102.91 0H-0.0897925C-0.357649 0 -0.613207 0.0526563 -0.84668 0.148182L0.0867683 3.78876L4.38481 3.76167L4.35823 8.14236L8.51669 9.25L7.3786 13.4744L11.1141 15.6413L8.94206 19.4215L12 22.5L8.94206 25.5785L11.1141 29.3587L7.3786 31.5256L7.50641 32ZM84.2342 26.6033C82.6889 26.5003 81.3805 26.3664 80.3091 26.2016V21.2875C82.8228 21.4935 84.8111 21.5966 86.274 21.5966C87.16 21.5966 87.7884 21.5863 88.1593 21.5656C88.5507 21.5244 88.8186 21.4523 88.9628 21.3493C89.107 21.2463 89.1895 21.1227 89.2101 20.9784C89.2513 20.8136 89.2719 20.556 89.2719 20.2058C89.2719 19.7937 89.2101 19.5052 89.0864 19.3404C88.9628 19.155 88.7362 19.0314 88.4065 18.9695C88.0768 18.8871 87.4381 18.7841 86.4903 18.6605L82.8743 18.1969C81.6793 18.0527 80.8448 17.4345 80.3709 16.3425C79.9177 15.2299 79.691 13.6228 79.691 11.5212C79.691 9.74923 80.0516 8.38936 80.7727 7.44158C81.4939 6.47319 82.4519 5.82416 83.647 5.4945C84.8626 5.16483 86.3461 5 88.0974 5C89.3955 5 90.7245 5.06181 92.0843 5.18544C93.4648 5.30906 94.5671 5.46359 95.3913 5.64903V10.5013C94.5877 10.3983 93.609 10.3158 92.4552 10.254C91.3014 10.1922 90.2403 10.1613 89.2719 10.1613C88.2417 10.1613 87.6029 10.2334 87.3557 10.3777C87.0466 10.5837 86.8921 10.9031 86.8921 11.3357C86.8921 11.7272 86.923 12.0054 86.9848 12.1702C87.0672 12.335 87.2115 12.4587 87.4175 12.5411C87.6442 12.6029 88.0459 12.675 88.6229 12.7574L91.868 13.1592C92.8158 13.2828 93.5987 13.4992 94.2168 13.8082C94.8556 14.1173 95.381 14.6736 95.7931 15.4772C96.2463 16.3219 96.473 17.7024 96.473 19.6186C96.473 21.679 96.1433 23.2243 95.484 24.2545C94.8247 25.2847 93.9387 25.9646 92.8261 26.2943C91.7135 26.6033 90.2918 26.7579 88.561 26.7579C87.2424 26.7579 85.8001 26.7064 84.2342 26.6033ZM14.9102 21.6275C16.3525 21.6275 17.3312 21.5656 17.8463 21.442C18.382 21.3184 18.722 21.0402 18.8662 20.6076C19.0104 20.1749 19.0825 19.3507 19.0825 18.1351V5.24725H26.3146V16.3734C26.3146 19.8967 26.1188 22.2971 25.7273 23.5745C25.3359 24.8314 24.4293 25.6349 23.0076 25.9852C21.5859 26.3355 18.8868 26.5106 14.9102 26.5106V21.6275ZM42.4313 26.5106L41.6587 23.3273H35.5084L34.7666 26.5106H27.751L33.654 5.24725H43.6985L49.6015 26.5106H42.4313ZM38.6917 11.0576H38.4135L36.6828 18.3823H40.4533L38.6917 11.0576ZM63.609 15.7862L65.6179 26.5106H74.7352L78.6602 5.24725H71.4591L69.9138 18.5987H69.5739L67.225 5.24725H59.8075L57.5205 18.5987H57.1805L55.388 5.24725H48.2178L52.1428 26.5106H61.2601L63.269 15.7862H63.609Z" fill="#141334"/>
</g>
<defs>
<clipPath id="clip0">
<rect width="171" height="32" fill="white"/>
</clipPath>
</defs>
</svg>
